<svg width="131" height="134" viewBox="0 0 131 134" fill="none" xmlns="http://www.w3.org/2000/svg">
<ellipse cx="65.1823" cy="66.6667" rx="65.0339" ry="66.588" fill="#F0F5FB"/>
<path d="M92.6443 82.7103V79.875C95.1127 79.3618 96.9671 77.1296 96.9671 74.4611V63.6205C96.9671 60.9649 94.8621 58.8096 92.2684 58.8096H82.608V50.7913C82.608 50.2654 82.182 49.8292 81.6683 49.8292H78.8491V48.0972C80.2023 47.8535 81.3676 47.0837 82.0442 45.9676C82.7459 44.813 82.796 43.4531 82.2071 42.2343L78.7489 35.2424C78.586 34.9217 78.2602 34.7164 77.9094 34.7164C77.5585 34.7164 77.2328 34.9217 77.0699 35.2424L73.6242 42.2343C73.0228 43.4402 73.0854 44.8001 73.7871 45.9676C74.4512 47.0837 75.629 47.8535 76.9822 48.0972V49.8292H74.163C73.6493 49.8292 73.2233 50.2654 73.2233 50.7913V58.8096H69.6022V50.7913C69.6022 50.2654 69.1762 49.8292 68.6624 49.8292H65.8433V48.0972C67.1965 47.8535 68.3617 47.0837 69.0383 45.9676C69.74 44.813 69.7901 43.4531 69.2012 42.2343L65.7305 35.2424C65.5676 34.9217 65.2418 34.7164 64.891 34.7164C64.5402 34.7164 64.2144 34.9217 64.0515 35.2424L60.6058 42.2343C60.0044 43.4402 60.0671 44.8001 60.7687 45.9676C61.4328 47.0837 62.6106 47.8535 63.9638 48.0972V49.8292H61.1321C60.6184 49.8292 60.1924 50.2654 60.1924 50.7913V58.8096H56.5713V50.7913C56.5713 50.2654 56.1453 49.8292 55.6315 49.8292H52.8124V48.0972C54.1656 47.8535 55.3308 47.0837 56.0074 45.9676C56.7091 44.813 56.7592 43.4531 56.1703 42.2343L52.7121 35.2424C52.5492 34.9217 52.2235 34.7164 51.8726 34.7164C51.5218 34.7164 51.196 34.9217 51.0331 35.2424L47.5875 42.2343C46.986 43.4402 47.0487 44.8001 47.7503 45.9676C48.4144 47.0837 49.5922 47.8535 50.9454 48.0972V49.8292H48.1262C47.6125 49.8292 47.1865 50.2654 47.1865 50.7913V58.8096H44.9938H43.1269H37.5136C34.9199 58.8096 32.8149 60.9777 32.8149 63.6205V74.4611C32.8149 75.9365 33.3788 77.322 34.3937 78.3612C35.3083 79.2977 36.4861 79.8494 37.7642 79.952V89.638H35.6842C34.1431 89.6508 32.8901 90.8568 32.8149 92.3963C32.7773 93.1917 33.053 93.9486 33.5918 94.5259C34.118 95.0904 34.8698 95.4239 35.6341 95.4239H36.3107C37.1126 95.4239 37.7642 96.0911 37.7642 96.9121V98.3105C37.7642 98.8365 38.1902 99.2727 38.7039 99.2727H57.8493H91.7046C92.2183 99.2727 92.6443 98.8365 92.6443 98.3105V96.9121C92.6443 96.0911 93.2959 95.4239 94.0978 95.4239C94.8245 95.4239 95.5262 95.1417 96.0524 94.6414C96.6037 94.1282 96.9295 93.4226 96.9671 92.6785C97.0047 91.8831 96.729 91.1262 96.1902 90.5489C95.664 89.9844 94.9122 89.6508 94.1479 89.6508H92.6443V82.7103ZM52.1859 78.3612C53.2008 79.4003 54.554 79.9776 55.9949 79.9776C58.9644 79.9776 61.3827 77.5016 61.3827 74.4611V73.3065C61.3827 72.3443 61.746 71.4463 62.4101 70.7663C63.0742 70.0864 63.9513 69.7143 64.891 69.7143C66.8206 69.7143 68.3993 71.3308 68.3993 73.3065V74.4611C68.3993 75.9365 68.9632 77.322 69.9781 78.3612C70.993 79.4003 72.3462 79.9776 73.7871 79.9776C76.7566 79.9776 79.1749 77.5016 79.1749 74.4611V73.3065C79.1749 72.3443 79.5382 71.4463 80.2023 70.7663C80.8664 70.0864 81.7435 69.7143 82.6832 69.7143C84.6128 69.7143 86.1915 71.3308 86.1915 73.3065V74.4611C86.1915 75.9365 86.7554 77.322 87.7703 78.3612C88.5972 79.2079 89.6372 79.7467 90.7649 79.9135V82.6974V89.638H39.6436V79.7596C41.9115 79.1181 43.5905 76.9756 43.5905 74.4483V73.2937C43.5905 72.3315 43.9538 71.4334 44.6179 70.7535C45.282 70.0735 46.1591 69.7015 47.0988 69.7015C49.0284 69.7015 50.6071 71.318 50.6071 73.2937V74.4483C50.6071 75.9365 51.171 77.322 52.1859 78.3612ZM75.3784 44.9669C75.0275 44.3768 75.0025 43.7225 75.3032 43.1195L77.9219 37.8211L80.5281 43.1195C80.8288 43.7225 80.8037 44.3896 80.4529 44.9669C80.1146 45.5314 79.5382 45.9419 78.8616 46.1344V44.7232C78.8616 44.1972 78.4356 43.761 77.9219 43.761C77.4082 43.761 76.9822 44.1972 76.9822 44.7232V46.1215C76.293 45.9291 75.7167 45.5186 75.3784 44.9669ZM75.0902 51.7535H80.7286V58.8096H75.0902V51.7535ZM63.9513 44.7232V46.1215C63.2747 45.9291 62.6983 45.5186 62.36 44.9541C62.0092 44.3639 61.9841 43.7097 62.2848 43.1067L64.891 37.8083L67.5097 43.1067C67.8104 43.7097 67.7854 44.3768 67.422 44.9541C67.0837 45.5186 66.5073 45.9291 65.8307 46.1215V44.7232C65.8307 44.1972 65.4047 43.761 64.891 43.761C64.3773 43.761 63.9513 44.1972 63.9513 44.7232ZM62.0718 51.7535H67.7102V58.8096H62.0718V51.7535ZM49.3416 44.9669C48.9908 44.3768 48.9657 43.7225 49.2664 43.1195L51.8726 37.8211L54.4913 43.1195C54.792 43.7225 54.767 44.3896 54.4162 44.9669C54.0779 45.5314 53.5015 45.9419 52.8249 46.1344V44.7232C52.8249 44.1972 52.3989 43.761 51.8852 43.761C51.3714 43.761 50.9454 44.1972 50.9454 44.7232V46.1215C50.2438 45.9291 49.6799 45.5186 49.3416 44.9669ZM49.0534 51.7535H54.6918V58.8096H49.0534V51.7535ZM35.7218 77.0013C35.0577 76.3213 34.6944 75.4233 34.6944 74.4611V63.6205C34.6944 62.0297 35.9599 60.7339 37.5136 60.7339H43.1269H44.9938H92.2684C93.8221 60.7339 95.0876 62.0297 95.0876 63.6205V74.4611C95.0876 76.4368 93.5089 78.0533 91.5793 78.0533C90.6396 78.0533 89.7625 77.6812 89.0984 77.0013C88.4343 76.3213 88.071 75.4233 88.071 74.4611V73.3065C88.071 70.266 85.6527 67.79 82.6832 67.79C81.2423 67.79 79.8891 68.3673 78.8742 69.4064C77.8593 70.4456 77.2954 71.8311 77.2954 73.3065V74.4611C77.2954 76.4368 75.7167 78.0533 73.7871 78.0533C72.8474 78.0533 71.9703 77.6812 71.3062 77.0013C70.6421 76.3213 70.2788 75.4233 70.2788 74.4611V73.3065C70.2788 70.266 67.8605 67.79 64.891 67.79C63.4501 67.79 62.0969 68.3673 61.082 69.4064C60.0671 70.4456 59.5032 71.8311 59.5032 73.3065V74.4611C59.5032 76.4368 57.9245 78.0533 55.9949 78.0533C55.0552 78.0533 54.1781 77.6812 53.514 77.0013C52.8499 76.3213 52.4866 75.4233 52.4866 74.4611V73.3065C52.4866 70.266 50.0683 67.79 47.0988 67.79C45.6579 67.79 44.3047 68.3673 43.2898 69.4064C42.2749 70.4456 41.711 71.8311 41.711 73.3065V74.4611C41.711 76.4368 40.1323 78.0533 38.2027 78.0533C37.263 78.0533 36.3859 77.6812 35.7218 77.0013ZM94.1479 91.5752C94.411 91.5752 94.6491 91.6778 94.8245 91.8703C94.9999 92.0627 95.1002 92.3193 95.0876 92.5759C95.0751 92.8196 94.9749 93.0505 94.7869 93.2173C94.599 93.3969 94.3484 93.4867 94.0978 93.4867C92.2559 93.4867 90.7649 95.0134 90.7649 96.8993V97.3355H62.8612H39.6436V96.8993C39.6436 95.0134 38.1526 93.4867 36.3107 93.4867H35.6341C35.371 93.4867 35.1329 93.3841 34.9575 93.1917C34.7821 92.9992 34.6818 92.7426 34.6944 92.4732C34.7194 91.9729 35.158 91.5624 35.6842 91.5624H94.1479V91.5752Z" fill="#003E7C"/>
<path d="M47.035 79.4774C45.1305 79.4774 43.5894 81.0554 43.5894 83.0054C43.5894 84.9555 45.1305 86.5334 47.035 86.5334C48.9395 86.5334 50.4807 84.9555 50.4807 83.0054C50.4807 81.0554 48.927 79.4774 47.035 79.4774ZM47.035 84.6091C46.1705 84.6091 45.4688 83.8906 45.4688 83.0054C45.4688 82.1202 46.1705 81.4018 47.035 81.4018C47.8996 81.4018 48.6012 82.1202 48.6012 83.0054C48.6012 83.8906 47.887 84.6091 47.035 84.6091Z" fill="#80A3BC"/>
<path d="M64.8905 86.5334C66.795 86.5334 68.3362 84.9555 68.3362 83.0054C68.3362 81.0554 66.795 79.4774 64.8905 79.4774C62.986 79.4774 61.4448 81.0554 61.4448 83.0054C61.4448 84.9555 62.986 86.5334 64.8905 86.5334ZM64.8905 81.4018C65.755 81.4018 66.4567 82.1202 66.4567 83.0054C66.4567 83.8906 65.755 84.6091 64.8905 84.6091C64.0259 84.6091 63.3243 83.8906 63.3243 83.0054C63.3243 82.1202 64.0259 81.4018 64.8905 81.4018Z" fill="#80A3BC"/>
<path d="M82.7577 86.5334C84.6622 86.5334 86.2034 84.9555 86.2034 83.0054C86.2034 81.0554 84.6622 79.4774 82.7577 79.4774C80.8532 79.4774 79.312 81.0554 79.312 83.0054C79.312 84.9555 80.8532 86.5334 82.7577 86.5334ZM82.7577 81.4018C83.6222 81.4018 84.3239 82.1202 84.3239 83.0054C84.3239 83.8906 83.6222 84.6091 82.7577 84.6091C81.8931 84.6091 81.1915 83.8906 81.1915 83.0054C81.1915 82.1202 81.8931 81.4018 82.7577 81.4018Z" fill="#80A3BC"/>
</svg>
