<svg width="348" height="93" viewBox="0 0 348 93" fill="none" xmlns="http://www.w3.org/2000/svg">
<path d="M53.3153 10.296C53.8733 10.296 54.2693 9.918 54.2693 9.306C54.2693 8.712 53.8013 8.388 53.3153 8.388C53.2613 8.388 53.2073 8.388 53.1533 8.406C53.1533 7.398 53.6033 6.768 54.5213 6.174L54.0893 5.472C52.8473 6.192 52.1813 7.236 52.1813 8.676C52.1813 9.72 52.5953 10.296 53.3153 10.296ZM56.5013 10.296C57.0593 10.296 57.4553 9.918 57.4553 9.306C57.4553 8.712 56.9873 8.388 56.5013 8.388C56.4473 8.388 56.3933 8.388 56.3393 8.406C56.3393 7.398 56.7893 6.768 57.7073 6.174L57.2753 5.472C56.0333 6.192 55.3673 7.236 55.3673 8.676C55.3673 9.72 55.7813 10.296 56.5013 10.296ZM62.8873 18H64.3993V7.452H67.9633V6.192H59.3233V7.452H62.8873V18ZM69.9457 18H71.4217V11.664C72.3037 10.782 72.9157 10.314 73.8157 10.314C74.9677 10.314 75.4717 11.016 75.4717 12.654V18H76.9477V12.456C76.9477 10.224 76.1197 9.036 74.2837 9.036C73.0777 9.036 72.1957 9.684 71.3677 10.476L71.4217 8.676V5.184H69.9457V18ZM83.2827 18.216C84.4707 18.216 85.4067 17.802 86.1627 17.316L85.6407 16.344C84.9927 16.758 84.2907 17.028 83.4627 17.028C81.7887 17.028 80.6547 15.84 80.5467 13.986H86.4507C86.4867 13.77 86.5047 13.446 86.5047 13.14C86.5047 10.638 85.2447 9.036 83.0127 9.036C81.0147 9.036 79.0887 10.782 79.0887 13.644C79.0887 16.506 80.9427 18.216 83.2827 18.216ZM80.5287 12.924C80.7087 11.196 81.8247 10.206 83.0487 10.206C84.4167 10.206 85.2087 11.16 85.2087 12.924H80.5287ZM92.4139 18H93.8359V11.826C93.8359 10.584 93.7279 9.324 93.6379 8.136H93.7099L94.9879 10.566L99.2719 18H100.82V6.192H99.3979V12.294C99.3979 13.536 99.5059 14.868 99.5779 16.056H99.5059L98.2279 13.608L93.9619 6.192H92.4139V18ZM107.47 18.216C108.658 18.216 109.594 17.802 110.35 17.316L109.828 16.344C109.18 16.758 108.478 17.028 107.65 17.028C105.976 17.028 104.842 15.84 104.734 13.986H110.638C110.674 13.77 110.692 13.446 110.692 13.14C110.692 10.638 109.432 9.036 107.2 9.036C105.202 9.036 103.276 10.782 103.276 13.644C103.276 16.506 105.13 18.216 107.47 18.216ZM104.716 12.924C104.896 11.196 106.012 10.206 107.236 10.206C108.604 10.206 109.396 11.16 109.396 12.924H104.716ZM111.507 18H113.055L114.243 15.966C114.531 15.426 114.819 14.904 115.125 14.4H115.197C115.521 14.904 115.845 15.444 116.151 15.966L117.429 18H119.031L116.187 13.59L118.833 9.252H117.285L116.223 11.178C115.953 11.646 115.683 12.15 115.431 12.636H115.359C115.053 12.15 114.765 11.646 114.495 11.178L113.325 9.252H111.723L114.369 13.428L111.507 18ZM123.079 18.216C123.619 18.216 124.213 18.054 124.699 17.892L124.411 16.776C124.123 16.884 123.727 17.01 123.421 17.01C122.413 17.01 122.071 16.398 122.071 15.318V10.458H124.429V9.252H122.071V6.804H120.829L120.649 9.252L119.281 9.342V10.458H120.577V15.3C120.577 17.028 121.207 18.216 123.079 18.216ZM130.154 18H133.916C136.562 18 138.398 16.866 138.398 14.544C138.398 12.924 137.408 11.988 135.986 11.718V11.646C137.102 11.286 137.714 10.242 137.714 9.072C137.714 7.002 136.058 6.192 133.664 6.192H130.154V18ZM131.648 11.214V7.38H133.466C135.302 7.38 136.238 7.902 136.238 9.27C136.238 10.476 135.41 11.214 133.394 11.214H131.648ZM131.648 16.812V12.366H133.7C135.77 12.366 136.922 13.032 136.922 14.49C136.922 16.074 135.734 16.812 133.7 16.812H131.648ZM140.592 18H142.068V9.252H140.592V18ZM141.348 7.452C141.924 7.452 142.338 7.074 142.338 6.48C142.338 5.904 141.924 5.508 141.348 5.508C140.772 5.508 140.358 5.904 140.358 6.48C140.358 7.074 140.772 7.452 141.348 7.452ZM146.588 18.216C146.984 18.216 147.236 18.162 147.434 18.072L147.236 16.956C147.074 16.992 147.002 16.992 146.912 16.992C146.696 16.992 146.498 16.812 146.498 16.344V5.184H145.022V16.236C145.022 17.514 145.472 18.216 146.588 18.216ZM151.176 18.216C151.572 18.216 151.824 18.162 152.022 18.072L151.824 16.956C151.662 16.992 151.59 16.992 151.5 16.992C151.284 16.992 151.086 16.812 151.086 16.344V5.184H149.61V16.236C149.61 17.514 150.06 18.216 151.176 18.216ZM154.198 18H155.674V9.252H154.198V18ZM154.954 7.452C155.53 7.452 155.944 7.074 155.944 6.48C155.944 5.904 155.53 5.508 154.954 5.508C154.378 5.508 153.964 5.904 153.964 6.48C153.964 7.074 154.378 7.452 154.954 7.452ZM162.029 18.216C164.171 18.216 166.079 16.542 166.079 13.644C166.079 10.71 164.171 9.036 162.029 9.036C159.887 9.036 157.979 10.71 157.979 13.644C157.979 16.542 159.887 18.216 162.029 18.216ZM162.029 16.992C160.535 16.992 159.509 15.642 159.509 13.644C159.509 11.628 160.535 10.26 162.029 10.26C163.541 10.26 164.549 11.628 164.549 13.644C164.549 15.642 163.541 16.992 162.029 16.992ZM168.383 18H169.859V11.664C170.741 10.782 171.353 10.314 172.253 10.314C173.405 10.314 173.909 11.016 173.909 12.654V18H175.385V12.456C175.385 10.224 174.557 9.036 172.721 9.036C171.515 9.036 170.615 9.684 169.787 10.512H169.733L169.607 9.252H168.383V18ZM181.974 18H184.998C188.562 18 190.506 15.804 190.506 12.042C190.506 8.298 188.562 6.192 184.926 6.192H181.974V18ZM183.468 16.776V7.416H184.818C187.572 7.416 188.958 9.072 188.958 12.042C188.958 15.03 187.572 16.776 184.818 16.776H183.468ZM196.307 18.216C198.449 18.216 200.357 16.542 200.357 13.644C200.357 10.71 198.449 9.036 196.307 9.036C194.165 9.036 192.257 10.71 192.257 13.644C192.257 16.542 194.165 18.216 196.307 18.216ZM196.307 16.992C194.813 16.992 193.787 15.642 193.787 13.644C193.787 11.628 194.813 10.26 196.307 10.26C197.819 10.26 198.827 11.628 198.827 13.644C198.827 15.642 197.819 16.992 196.307 16.992ZM204.227 18.216C204.623 18.216 204.875 18.162 205.073 18.072L204.875 16.956C204.713 16.992 204.641 16.992 204.551 16.992C204.335 16.992 204.137 16.812 204.137 16.344V5.184H202.661V16.236C202.661 17.514 203.111 18.216 204.227 18.216ZM208.814 18.216C209.21 18.216 209.462 18.162 209.66 18.072L209.462 16.956C209.3 16.992 209.228 16.992 209.138 16.992C208.922 16.992 208.724 16.812 208.724 16.344V5.184H207.248V16.236C207.248 17.514 207.698 18.216 208.814 18.216ZM213.852 18.216C214.95 18.216 215.922 17.64 216.75 16.956H216.804L216.93 18H218.154V12.636C218.154 10.458 217.254 9.036 215.112 9.036C213.708 9.036 212.484 9.648 211.674 10.17L212.25 11.196C212.934 10.728 213.852 10.26 214.86 10.26C216.3 10.26 216.66 11.34 216.66 12.456C212.934 12.87 211.296 13.824 211.296 15.732C211.296 17.298 212.394 18.216 213.852 18.216ZM214.284 17.028C213.42 17.028 212.736 16.614 212.736 15.624C212.736 14.508 213.744 13.788 216.66 13.428V15.858C215.814 16.614 215.13 17.028 214.284 17.028ZM220.907 18H222.383V12.384C222.977 10.908 223.859 10.368 224.597 10.368C224.957 10.368 225.155 10.422 225.443 10.512L225.731 9.216C225.443 9.09 225.173 9.036 224.795 9.036C223.805 9.036 222.905 9.738 222.311 10.836H222.257L222.131 9.252H220.907V18ZM230.894 18H232.388V13.32H234.332C236.924 13.32 238.688 12.15 238.688 9.666C238.688 7.074 236.906 6.192 234.26 6.192H230.894V18ZM232.388 12.096V7.398H234.08C236.15 7.398 237.194 7.956 237.194 9.666C237.194 11.34 236.204 12.096 234.152 12.096H232.388ZM240.946 18H242.422V12.384C243.016 10.908 243.898 10.368 244.636 10.368C244.996 10.368 245.194 10.422 245.482 10.512L245.77 9.216C245.482 9.09 245.212 9.036 244.834 9.036C243.844 9.036 242.944 9.738 242.35 10.836H242.296L242.17 9.252H240.946V18ZM250.412 18.216C252.554 18.216 254.462 16.542 254.462 13.644C254.462 10.71 252.554 9.036 250.412 9.036C248.27 9.036 246.362 10.71 246.362 13.644C246.362 16.542 248.27 18.216 250.412 18.216ZM250.412 16.992C248.918 16.992 247.892 15.642 247.892 13.644C247.892 11.628 248.918 10.26 250.412 10.26C251.924 10.26 252.932 11.628 252.932 13.644C252.932 15.642 251.924 16.992 250.412 16.992ZM259.754 18.216C260.78 18.216 261.716 17.64 262.4 16.974H262.454L262.58 18H263.804V5.184H262.31V8.55L262.382 10.044C261.608 9.414 260.942 9.036 259.934 9.036C257.936 9.036 256.136 10.8 256.136 13.644C256.136 16.56 257.558 18.216 259.754 18.216ZM260.078 16.974C258.548 16.974 257.666 15.714 257.666 13.626C257.666 11.628 258.782 10.278 260.186 10.278C260.906 10.278 261.572 10.53 262.31 11.196V15.768C261.59 16.578 260.888 16.974 260.078 16.974ZM269.306 18.216C270.512 18.216 271.376 17.586 272.186 16.632H272.24L272.366 18H273.59V9.252H272.114V15.462C271.286 16.488 270.656 16.938 269.756 16.938C268.604 16.938 268.118 16.236 268.118 14.598V9.252H266.624V14.796C266.624 17.028 267.452 18.216 269.306 18.216ZM279.997 18.216C281.041 18.216 282.031 17.802 282.823 17.1L282.175 16.11C281.635 16.596 280.933 16.992 280.123 16.992C278.521 16.992 277.423 15.642 277.423 13.644C277.423 11.628 278.575 10.26 280.159 10.26C280.861 10.26 281.401 10.584 281.905 11.034L282.661 10.062C282.049 9.504 281.257 9.036 280.105 9.036C277.855 9.036 275.893 10.71 275.893 13.644C275.893 16.542 277.675 18.216 279.997 18.216ZM287.329 18.216C287.869 18.216 288.463 18.054 288.949 17.892L288.661 16.776C288.373 16.884 287.977 17.01 287.671 17.01C286.663 17.01 286.321 16.398 286.321 15.318V10.458H288.679V9.252H286.321V6.804H285.079L284.899 9.252L283.531 9.342V10.458H284.827V15.3C284.827 17.028 285.457 18.216 287.329 18.216ZM290.729 10.242C291.971 9.522 292.655 8.496 292.655 7.056C292.655 6.012 292.223 5.418 291.521 5.418C290.963 5.418 290.567 5.796 290.567 6.426C290.567 7.002 291.017 7.326 291.521 7.326C291.575 7.326 291.611 7.326 291.665 7.308C291.665 8.334 291.215 8.964 290.315 9.558L290.729 10.242ZM293.915 10.242C295.157 9.522 295.841 8.496 295.841 7.056C295.841 6.012 295.409 5.418 294.707 5.418C294.149 5.418 293.753 5.796 293.753 6.426C293.753 7.002 294.203 7.326 294.707 7.326C294.761 7.326 294.797 7.326 294.851 7.308C294.851 8.334 294.401 8.964 293.501 9.558L293.915 10.242Z" fill="#232426"/>
<path d="M191.423 65.0442C188.929 65.0442 186.971 65.5791 185.011 66.647C185.011 60.9465 185.011 55.7809 185.19 54L173.253 56.1368V57.2057L174.499 57.3837C176.101 57.7397 176.638 58.6296 176.991 60.7685C177.35 65.0442 177.17 87.8475 176.991 91.5893C180.198 92.3022 183.584 92.8372 186.97 92.8372C196.412 92.8372 202.112 86.9576 202.112 77.6933C202.112 70.3898 197.481 65.0442 191.423 65.0442ZM187.326 90.8763C186.613 90.8763 185.721 90.8763 185.188 90.6994C185.009 88.2055 184.832 77.6933 185.009 68.4299C186.078 68.073 186.79 67.895 187.682 67.895C191.603 67.895 193.741 72.5266 193.741 78.2262C193.74 85.3547 191.067 90.8763 187.326 90.8763ZM128.356 54.7119H97V56.3148L98.7819 56.4928C101.097 56.8487 101.989 58.2736 102.344 61.6584C102.88 68.0719 102.701 79.6531 102.344 85.1737C101.988 88.5594 101.098 90.1633 98.7819 90.3393L97 90.6973V92.1222H117.132V90.6973L114.994 90.3393C112.678 90.1623 111.787 88.5594 111.431 85.1737C111.252 82.8568 111.074 79.1151 111.074 74.4844L115.35 74.6624C118.022 74.6624 119.268 76.8003 119.803 79.828H121.407V67.183H119.803C119.267 70.2118 118.022 72.3486 115.35 72.3486L111.075 72.5277C111.075 66.4701 111.253 60.7695 111.432 57.3848H117.667C122.478 57.3848 124.972 60.4125 126.753 65.7582L128.535 65.2232L128.356 54.7119Z" fill="#232426"/>
<path d="M138.511 64.6882C147.419 64.6882 151.873 70.7458 151.873 78.7622C151.873 86.4226 146.884 92.8382 137.976 92.8382C129.068 92.8382 124.615 86.7796 124.615 78.7622C124.615 71.1018 129.602 64.6882 138.511 64.6882ZM137.976 66.4701C134.056 66.4701 132.987 71.8147 132.987 78.7622C132.987 85.5317 134.769 91.0543 138.333 91.0543C142.427 91.0543 143.498 85.7097 143.498 78.7622C143.498 71.9927 141.719 66.4701 137.976 66.4701ZM204.427 78.9412C204.427 71.6367 209.059 64.6882 218.145 64.6882C225.625 64.6882 229.19 70.2118 229.19 77.5153H212.621C212.442 84.1068 215.649 88.9175 222.064 88.9175C224.914 88.9175 226.339 88.2066 228.122 86.9586L228.833 87.8486C227.051 90.3424 223.133 92.8382 218.145 92.8382C210.128 92.8372 204.427 87.1366 204.427 78.9412ZM212.621 75.5565L220.995 75.3774C220.995 71.8147 220.46 66.4701 217.432 66.4701C214.404 66.4701 212.798 71.4577 212.621 75.5565ZM250.394 66.1141C248.256 65.2222 245.406 64.6882 242.199 64.6882C235.609 64.6882 231.509 68.6069 231.509 73.2396C231.509 77.8723 234.535 79.8311 238.816 81.257C243.268 82.8589 244.516 84.1068 244.516 86.2447C244.516 88.3825 242.912 90.3413 240.062 90.3413C236.678 90.3413 234.182 88.3825 232.223 83.0369L230.975 83.3949L231.154 91.2333C233.292 92.1232 237.211 92.8372 240.597 92.8372C247.545 92.8372 252 89.2724 252 83.7508C252 80.0091 250.039 77.8723 245.407 76.0894C240.417 74.1305 238.638 72.8836 238.638 70.5668C238.638 68.2509 240.244 66.647 242.381 66.647C245.586 66.647 247.724 68.6069 249.33 73.4176L250.576 73.0616L250.394 66.1141ZM175.032 65.4012C172.004 63.6213 166.659 64.5102 163.809 70.9248L163.986 64.6892L152.051 67.0051V68.074L153.298 68.252C154.903 68.431 155.614 69.3209 155.793 71.6378C156.148 75.9134 155.971 83.3969 155.793 87.1377C155.614 89.2734 154.903 90.3424 153.298 90.5214L152.051 90.7004V92.1253H168.619V90.7004L166.481 90.5214C164.7 90.3424 164.165 89.2734 163.986 87.1377C163.63 83.7519 163.63 76.9824 163.809 72.7067C164.699 71.4587 168.619 70.3909 172.181 72.7067L175.032 65.4012Z" fill="#232426"/>
</svg>
