<svg width="131" height="134" viewBox="0 0 131 134" fill="none" xmlns="http://www.w3.org/2000/svg">
<ellipse cx="65.6115" cy="66.6667" rx="65.0339" ry="66.588" fill="#F0F5FB"/>
<path d="M73.9054 47.9131V45.633C73.9054 42.4897 71.4078 39.9325 68.338 39.9325C65.2681 39.9325 62.7705 42.4897 62.7705 45.633V47.9131C62.7705 49.7681 63.6535 51.403 64.9975 52.4439V53.8929L59.6261 55.464C58.1997 55.8824 57.2031 57.2357 57.2031 58.7543V74.1353H59.4301V58.7543C59.4301 58.2481 59.7619 57.7966 60.2385 57.6575L67.2245 55.6133V53.4985C67.5841 53.5737 67.9571 53.6136 68.338 53.6136C68.7188 53.6136 69.0918 53.5737 69.4514 53.4985V55.6133L76.4374 57.6564C76.914 57.7966 77.2458 58.2469 77.2458 58.7543V74.1353H79.4728V58.7543C79.4728 57.2357 78.4762 55.8824 77.0498 55.4651L71.6784 53.8941V52.445C73.0224 51.403 73.9054 49.7681 73.9054 47.9131ZM68.338 51.3334C66.4963 51.3334 64.9975 49.7989 64.9975 47.9131V45.633C64.9975 43.7472 66.4963 42.2127 68.338 42.2127C70.1797 42.2127 71.6784 43.7472 71.6784 45.633V47.9131C71.6784 49.7989 70.1797 51.3334 68.338 51.3334Z" fill="#003E7C"/>
<path d="M33.8207 99.2172H31.5938V101.497H33.8207V99.2172Z" fill="#80A3BC"/>
<path d="M100.63 99.2172H98.4033V101.497H100.63V99.2172Z" fill="#80A3BC"/>
<path d="M87.2681 35.844V58.1738H89.4951V35.844L90.9348 37.3181L92.5093 35.7061L88.3816 31.4797L84.2539 35.7061L85.8284 37.3181L87.2681 35.844Z" fill="#003E7C"/>
<path d="M89.495 60.454H87.2681V62.7342H89.495V60.454Z" fill="#80A3BC"/>
<path d="M92.5092 96.6029L90.9348 94.9908L89.495 96.465V74.1351H87.2681V96.465L85.8283 94.9908L84.2539 96.6029L86.8071 99.2172H75.0198V61.5941H72.7928V99.2172H69.4523V72.9951H67.2254V99.2172H63.8849V61.5941H61.658V99.2172H50.5231V37.6522H72.7928V30.8116H39.3883V99.2172H36.0479V101.497H96.1759V99.2172H89.956L92.5092 96.6029ZM50.5231 33.0918H70.5658V35.372H50.5231V33.0918ZM48.2962 39.9324H46.0692V42.2126H48.2962V44.4928H43.8422V46.7729H48.2962V49.0531H46.0692V51.3333H48.2962V53.6135H43.8422V55.8937H48.2962V58.1739H46.0692V60.454H48.2962V62.7342H43.8422V65.0144H48.2962V67.2946H46.0692V69.5748H48.2962V71.855H43.8422V74.1351H48.2962V76.4153H46.0692V78.6955H48.2962V80.9757H43.8422V83.2559H48.2962V85.5361H46.0692V87.8162H48.2962V90.0964H43.8422V92.3766H48.2962V94.6568H46.0692V96.937H48.2962V99.2172H41.6153V33.0918H48.2962V39.9324Z" fill="#003E7C"/>
<path d="M89.495 69.575H87.2681V71.8551H89.495V69.575Z" fill="#80A3BC"/>
<path d="M89.495 65.0144H87.2681V67.2946H89.495V65.0144Z" fill="#80A3BC"/>
</svg>
