<svg width="159" height="48" viewBox="0 0 159 48" fill="none" xmlns="http://www.w3.org/2000/svg">
<path fill-rule="evenodd" clip-rule="evenodd" d="M63.068 32.2925H60.4248V16.084H66.3665C66.9199 16.1276 67.4075 16.2117 67.8301 16.3352C68.2523 16.4592 68.6198 16.6119 68.9332 16.7939C69.2462 16.9763 69.5156 17.1728 69.7415 17.3837C69.9671 17.5949 70.1526 17.8025 70.2985 18.0062C70.6771 18.5162 70.9282 19.0913 71.0522 19.7319C71.1756 20.373 71.1575 21.0426 70.9974 21.7417C70.8517 22.339 70.6295 22.8415 70.3314 23.2489C70.0326 23.6568 69.6901 23.9955 69.3046 24.2647C68.9184 24.5343 68.5144 24.7563 68.0922 24.9309C67.6697 25.1056 67.2622 25.266 66.8688 25.4115C66.2426 25.6447 65.649 25.8958 65.0886 26.1653C64.5278 26.4349 64.0363 26.8608 63.6141 27.443C63.4829 27.6178 63.3771 27.84 63.2974 28.1092C63.2173 28.3788 63.1626 28.6519 63.1335 28.9284C63.1041 29.2053 63.0862 29.4783 63.0789 29.7475C63.0715 30.0172 63.068 30.2391 63.068 30.414L63.068 32.2925ZM63.068 18.7273V24.4503C63.5486 24.1156 64.0363 23.8425 64.5317 23.6311C65.0266 23.4203 65.4999 23.2346 65.9515 23.0742C66.3591 22.9289 66.705 22.7977 66.9892 22.681C67.2731 22.5645 67.5134 22.4408 67.71 22.3096C67.9065 22.1786 68.0628 22.0331 68.1795 21.8727C68.296 21.7127 68.3834 21.516 68.4417 21.2829C68.4997 21.0644 68.5144 20.7843 68.4853 20.4419C68.4559 20.1 68.3468 19.805 68.1578 19.5573C67.8083 19.0767 67.1672 18.8002 66.2355 18.7273L63.068 18.7273Z" fill="#003E7C"/>
<path d="M86.944 16.084V32.2925H84.3007V24.6687H77.6381V32.2925H74.9951V16.084H77.6381V22.244H84.3007V16.084H86.944Z" fill="#003E7C"/>
<path fill-rule="evenodd" clip-rule="evenodd" d="M98.2801 32.6414C97.1151 32.6414 96.0155 32.4193 94.9818 31.9751C93.9476 31.5312 93.0487 30.9266 92.2841 30.1621C91.5195 29.3975 90.9154 28.4985 90.4708 27.4644C90.0269 26.4303 89.8047 25.3312 89.8047 24.1657C89.8047 23.0007 90.0269 21.9049 90.4708 20.8782C90.9154 19.8515 91.5195 18.9559 92.2841 18.1914C93.0487 17.4268 93.9476 16.8227 94.9818 16.3784C96.0155 15.9342 97.1151 15.7119 98.2801 15.7119C99.4452 15.7119 100.541 15.9342 101.568 16.3784C102.594 16.8227 103.49 17.4268 104.255 18.1914C105.019 18.9559 105.624 19.8515 106.068 20.8782C106.512 21.9049 106.734 23.0007 106.734 24.1657C106.734 25.3312 106.512 26.4303 106.068 27.4644C105.624 28.4985 105.019 29.3975 104.255 30.1621C103.49 30.9266 102.594 31.5312 101.568 31.9751C100.541 32.4193 99.4452 32.6414 98.2801 32.6414ZM98.2801 18.3552C97.4645 18.3552 96.7037 18.5082 95.9976 18.8138C95.2911 19.1198 94.6759 19.5347 94.1519 20.0591C93.6274 20.5833 93.2125 21.1986 92.9066 21.9049C92.6007 22.6115 92.448 23.3651 92.448 24.1657C92.448 24.9815 92.6007 25.7424 92.9066 26.4485C93.2125 27.1551 93.6274 27.77 94.1519 28.2944C94.6759 28.8186 95.2911 29.2337 95.9976 29.5396C96.7037 29.8453 97.4645 29.9982 98.2801 29.9982C99.081 29.9982 99.8347 29.8453 100.541 29.5396C101.247 29.2337 101.863 28.8186 102.387 28.2944C102.911 27.77 103.326 27.1551 103.632 26.4485C103.938 25.7424 104.091 24.9815 104.091 24.1657C104.091 23.3651 103.938 22.6115 103.632 21.9049C103.326 21.1986 102.911 20.5833 102.387 20.0591C101.863 19.5347 101.247 19.1198 100.541 18.8138C99.8347 18.5082 99.081 18.3552 98.2801 18.3552Z" fill="#003E7C"/>
<path d="M112.611 18.4868V22.2004H117.264V24.5378H112.611V29.8896H118.705V32.2925H109.968V16.084H118.705V18.4868H112.611Z" fill="#003E7C"/>
<path d="M124.604 21.7193V32.292H122.113V15.3408L132.577 26.6343V16.0835H135.067V32.9911L124.604 21.7193Z" fill="#003E7C"/>
<path d="M139.632 32.2925V16.084H142.275V32.2925H139.632Z" fill="#003E7C"/>
<path d="M153.94 24.1884L158.833 32.2925H155.753L152.411 26.744L149.069 32.2925H146.011L150.882 24.1884L146.011 16.084H149.069L152.411 21.6325L155.753 16.084H158.833L153.94 24.1884Z" fill="#003E7C"/>
<path d="M56.2839 16.6899H55.1437V20.4364H54.425V16.6899H53.2852V16.0308H56.2839V16.6899Z" fill="#003E7C"/>
<path d="M56.3582 21.9692V26.3749H55.6397V24.3026H53.8289V26.3749H53.1104V21.9692H53.8289V23.6435H55.6397V21.9692H56.3582Z" fill="#003E7C"/>
<path d="M54.321 28.5589V29.5682H55.5856V30.2036H54.321V31.6584H55.9775V32.3114H53.6025V27.9058H55.9775V28.5589L54.321 28.5589Z" fill="#003E7C"/>
<path fill-rule="evenodd" clip-rule="evenodd" d="M23.7064 1.92999C35.7408 1.92999 45.4965 11.8111 45.4965 24C45.4965 36.1889 35.7408 46.07 23.7064 46.07C11.6721 46.07 1.91638 36.1889 1.91638 24C1.91638 11.8111 11.6721 1.92999 23.7064 1.92999ZM23.7064 0C20.5056 0 17.3996 0.63537 14.4746 1.88841C11.6512 3.09799 9.11608 4.82899 6.93969 7.03331C4.764 9.23692 3.05574 11.8034 1.86228 14.6611C0.62657 17.6202 0 20.7622 0 24C0 27.2378 0.62657 30.3798 1.86228 33.3389C3.05574 36.1966 4.764 38.7631 6.93969 40.9667C9.11608 43.171 11.6512 44.902 14.4746 46.1116C17.3996 47.3646 20.5056 48 23.7064 48C26.9073 48 30.0133 47.3646 32.9383 46.1116C35.7617 44.902 38.2968 43.171 40.4733 40.9667C42.6489 38.7631 44.3572 36.1966 45.5506 33.3389C46.7863 30.3798 47.4129 27.2378 47.4129 24C47.4129 20.7622 46.7863 17.6202 45.5506 14.6611C44.3572 11.8034 42.6489 9.23693 40.4733 7.03331C38.2968 4.82899 35.7617 3.09799 32.9383 1.88841C30.0133 0.63537 26.9073 0 23.7064 0Z" fill="#003E7C"/>
<path d="M21.8291 12.2399C21.937 11.8691 22.2016 11.5488 22.5346 11.325C22.8691 11.1013 23.2795 10.9784 23.6889 10.9781C24.0982 10.9756 24.5096 11.0953 24.8457 11.317C25.1803 11.5385 25.4469 11.8576 25.5566 12.228C25.233 12.0222 24.9316 11.8667 24.6209 11.7662C24.3124 11.6646 24.0026 11.6168 23.6909 11.6168C23.3792 11.6173 23.0694 11.6678 22.7614 11.7712C22.4512 11.8736 22.1509 12.0315 21.8291 12.2399L21.8291 12.2399Z" fill="#003E7C"/>
<path d="M20.0078 9.42707C20.2722 8.7327 20.804 8.13867 21.4564 7.72456C22.111 7.30974 22.8991 7.08579 23.685 7.08501C24.4708 7.0812 25.2606 7.29869 25.9181 7.70935C26.5734 8.11922 27.109 8.71033 27.3768 9.40373C26.7878 8.9577 26.2007 8.6107 25.5806 8.3841C24.9637 8.15556 24.3278 8.04214 23.688 8.04302C23.0481 8.04362 22.4128 8.16264 21.797 8.39461C21.4883 8.50946 21.1864 8.65578 20.8894 8.82836C20.591 9.00023 20.3037 9.20339 20.0078 9.42707H20.0078Z" fill="#003E7C"/>
<path d="M17.8994 6.76683C17.9569 6.6351 18.0206 6.50549 18.0859 6.37518C18.1583 6.25087 18.2312 6.12462 18.3093 6.00119C18.3912 5.88131 18.4763 5.7624 18.5635 5.64402C18.6555 5.53067 18.7495 5.41751 18.8461 5.30557C19.241 4.86734 19.7063 4.48478 20.2185 4.17003C21.2427 3.53861 22.4642 3.19982 23.6825 3.19831C24.9005 3.19282 26.1246 3.52153 27.1531 4.14686C27.6675 4.45815 28.1354 4.83779 28.533 5.27374C28.6309 5.38434 28.7247 5.49803 28.8176 5.61067C28.9059 5.72807 28.9913 5.84699 29.0739 5.96644C29.153 6.08914 29.2263 6.21531 29.2994 6.33935C29.3656 6.46913 29.4298 6.59857 29.488 6.73012C29.3711 6.64276 29.2616 6.55233 29.1518 6.46427L28.8157 6.21177C28.6992 6.13414 28.5892 6.05193 28.4754 5.97553C28.3582 5.90294 28.2466 5.82577 28.1305 5.75566C27.6676 5.47363 27.1918 5.23492 26.7038 5.04529C25.7282 4.66519 24.7102 4.47361 23.6865 4.47565C22.6626 4.47644 21.6454 4.67678 20.6721 5.06252C20.1849 5.25525 19.7105 5.49714 19.2495 5.78244C19.1346 5.85414 19.023 5.93141 18.9061 6.00479C18.7935 6.08268 18.6834 6.1649 18.5675 6.2435C18.4583 6.32829 18.3469 6.41325 18.2334 6.49847C18.1244 6.5875 18.0155 6.67857 17.8994 6.7668L17.8994 6.76683Z" fill="#003E7C"/>
<path fill-rule="evenodd" clip-rule="evenodd" d="M38.6097 35.3394C38.6097 35.3394 45.2555 25.7189 39.8755 16.7312C39.8755 16.7312 42.8503 23.5036 36.3312 30.2127C36.3312 30.2127 45.2555 17.6173 31.5208 8.06006C31.5208 8.06006 38.7996 13.6931 30.3816 23.5669C30.3816 23.5669 34.7348 31.2513 30.6774 37.6914C31.0533 35.4547 31.1685 31.9932 29.5153 28.3561C29.5153 28.3561 29.5435 31.0566 29.3606 31.8161C29.3606 31.8161 29.4872 27.9341 27.504 25.0648C25.5209 22.1956 24.9723 17.5963 27.6728 15.4021C27.6728 15.4021 25.8327 14.8936 24.3398 17.1568C24.4078 16.4614 24.576 15.2802 24.9723 14.516C24.9723 14.516 23.744 15.5184 23.4455 17C22.6244 16.4722 21.2828 15.4724 20.373 14.094C19.6557 12.9547 19.6135 11.6889 20.2042 10.8872C20.2042 10.8872 17.9679 11.5201 18.0101 13.883C18.0208 14.482 18.0568 14.9769 18.1106 15.4051C18.0472 15.5236 17.8919 15.8741 17.9256 16.4147C17.9638 17.0257 19.4076 20.1022 19.6083 21.2961C19.6181 21.3752 19.6259 21.4537 19.6312 21.5316C19.6312 21.5578 19.6302 21.5825 19.6275 21.6048L19.636 21.6134C19.6787 22.5188 19.3867 23.3404 18.3476 24.0943C18.3476 24.0943 20.0355 24.2209 20.5839 23.7146C20.5839 23.7146 20.3308 25.1914 18.9806 25.9509C18.9806 25.9509 20.6684 25.7399 21.3013 24.7694C21.3013 24.7694 21.0903 26.204 20.1621 26.8792C20.1621 26.8792 20.7527 27.0902 21.3857 26.5839C21.3857 26.5839 22.6938 31.0566 17.9256 35.3183C17.9256 35.3183 20.7106 34.5589 21.8076 33.314C21.8076 33.314 20.9096 35.2254 16.3705 37.0124C13.0068 30.7239 17.0606 23.5669 17.0606 23.5669C8.64264 13.6931 15.9214 8.06007 15.9214 8.06007C2.18674 17.6173 11.1111 30.2127 11.1111 30.2127C4.59186 23.5036 7.5667 16.7313 7.5667 16.7313C2.18675 25.7189 8.83255 35.3394 8.83255 35.3394C6.42744 33.4406 5.28809 29.7063 5.28809 29.7063C5.28809 29.7063 5.28809 34.8331 10.7946 40.0864C14.9953 44.094 21.074 44.7044 23.721 44.6503C26.3679 44.7044 32.4468 44.0941 36.6476 40.0864C42.1541 34.8331 42.1541 29.7063 42.1541 29.7063C42.1541 29.7063 41.0148 33.4406 38.6097 35.3394L38.6097 35.3394ZM20.5182 18.2036C20.4681 18.4311 19.9652 19.5133 19.9652 19.5133C19.8638 19.1389 19.87 18.5867 19.8786 18.1837C19.8871 17.7807 19.6431 16.6864 19.6431 16.6864C19.6431 16.6864 20.5684 17.976 20.5182 18.2036Z" fill="#003E7C"/>
</svg>
