<svg width="194" height="175" viewBox="0 0 194 175" fill="none" xmlns="http://www.w3.org/2000/svg">
<rect x="0.130371" y="0.181122" width="193.256" height="174.362" rx="11" fill="#F0F5FB"/>
<path d="M97.0179 146.389C96.2003 146.389 95.3824 146.078 94.7476 145.456L45.7975 97.4551C45.789 97.447 45.7802 97.4383 45.7716 97.4299C45.4608 97.118 38.1044 89.6728 33.6747 78.9101C27.5984 64.1458 29.9547 50.425 40.4892 39.2307C40.5247 39.1931 40.5611 39.1561 40.5982 39.1202C49.7493 30.2642 59.9192 26.2412 70.0035 27.4887C79.8642 28.7072 89.1338 35.0622 97.0183 45.952C104.902 35.0618 114.172 28.7069 124.031 27.4883C134.114 26.2429 144.283 30.2639 153.434 39.1202C153.471 39.1561 153.508 39.1931 153.543 39.2307C173.178 60.0956 159.386 83.3485 152.545 92.3775C151.433 93.8434 149.372 94.1102 147.939 92.9726C146.507 91.8347 146.247 89.7236 147.358 88.2573C154.547 78.7699 164.292 60.4064 148.869 43.9511C141.198 36.5499 132.883 33.1644 124.818 34.1612C115.784 35.2776 107.125 42.0278 99.776 53.6814C99.1714 54.6402 98.1329 55.2193 97.0186 55.2193C95.9043 55.2193 94.8655 54.6402 94.2612 53.6814C86.9124 42.0278 78.2526 35.2776 69.2174 34.1612C61.1523 33.1654 52.8349 36.5493 45.1638 43.9507C36.5568 53.1323 34.704 63.9589 39.6559 76.1322C43.4774 85.5265 50.0651 92.3214 50.3575 92.6198L97.0186 138.375L108.187 127.423C109.495 126.139 111.574 126.184 112.827 127.525C114.081 128.866 114.036 130.993 112.727 132.277L99.2889 145.455C98.6535 146.078 97.8355 146.389 97.0179 146.389Z" fill="#003E7C"/>
<path d="M131.003 142.417C113.999 142.417 100.165 128.253 100.165 110.843C100.165 93.4321 113.999 79.268 131.003 79.268C148.007 79.268 161.84 93.4321 161.84 110.843C161.84 128.253 148.006 142.417 131.003 142.417ZM131.003 85.9893C117.618 85.9893 106.729 97.1385 106.729 110.843C106.729 124.547 117.618 135.696 131.003 135.696C144.387 135.696 155.276 124.547 155.276 110.843C155.276 97.1385 144.387 85.9893 131.003 85.9893Z" fill="#003E7C"/>
<path d="M131.152 124.469C129.34 124.469 127.87 122.964 127.87 121.108V100.944C127.87 99.0884 129.34 97.5835 131.152 97.5835C132.965 97.5835 134.435 99.0884 134.435 100.944V121.108C134.435 122.964 132.965 124.469 131.152 124.469Z" fill="#80A3BC"/>
<path d="M140.671 114.387H120.978C119.165 114.387 117.695 112.882 117.695 111.026C117.695 109.17 119.165 107.665 120.978 107.665H140.671C142.483 107.665 143.953 109.17 143.953 111.026C143.953 112.882 142.483 114.387 140.671 114.387Z" fill="#80A3BC"/>
</svg>
