<svg width="131" height="134" viewBox="0 0 131 134" fill="none" xmlns="http://www.w3.org/2000/svg">
<ellipse cx="65.3971" cy="66.6667" rx="65.0339" ry="66.588" fill="#F0F5FB"/>
<path d="M97.6731 46.1616C98.4691 45.4131 99.2344 44.6258 99.9285 43.8133C102.774 40.4793 103.983 36.4872 103.164 33.1331C102.578 30.7371 101.045 28.9477 98.8443 28.0938C98.2348 27.859 97.5958 27.7384 96.9458 27.7384C94.5383 27.7384 92.4411 29.3659 91.1521 30.6618C89.8631 29.3659 87.7659 27.7384 85.3584 27.7384C84.7083 27.7384 84.0694 27.859 83.4586 28.0938C82.0519 28.64 80.9211 29.5731 80.1325 30.7974C75.4683 28.7757 70.5208 27.7384 65.3967 27.7384C44.4331 27.7384 27.377 45.2009 27.377 66.6668C27.377 72.5223 28.6292 78.1318 31.071 83.3695C29.9954 84.3189 29.2301 85.5985 28.856 87.1293C28.0368 90.4834 29.2461 94.4767 32.0926 97.8107C34.4719 100.6 37.6337 103.15 40.3429 104.47C40.5085 104.55 40.6888 104.591 40.8678 104.591C41.0469 104.591 41.2272 104.55 41.394 104.469C43.1417 103.617 45.0782 102.247 46.8737 100.635C52.5154 103.871 58.8929 105.595 65.3967 105.595C86.3604 105.595 103.417 88.1326 103.417 66.6668C103.417 59.3771 101.42 52.3185 97.6731 46.1616ZM84.3269 30.4433C84.663 30.314 85.0002 30.2499 85.3584 30.2499C87.5279 30.2499 89.6227 32.5969 90.2126 33.3152C90.6799 33.8815 91.623 33.8815 92.0903 33.3152C92.6815 32.5969 94.7775 30.2499 96.9458 30.2499C97.3039 30.2499 97.6412 30.314 97.9772 30.4433C99.4036 30.9958 100.401 32.1674 100.786 33.7422C101.411 36.2976 100.401 39.4445 98.084 42.1595C96.0959 44.4876 93.4333 46.6965 91.1533 47.9322C88.8721 46.6965 86.2095 44.4864 84.2239 42.1595C81.9059 39.4445 80.8953 36.2976 81.5208 33.7409C81.9035 32.1674 82.9006 30.9971 84.3269 30.4433ZM40.8678 101.93C38.5867 100.694 35.924 98.4838 33.9384 96.1569C31.6205 93.4419 30.6099 90.295 31.2353 87.7383C31.6192 86.1648 32.6176 84.9932 34.0439 84.4407C34.3787 84.3113 34.716 84.2473 35.0741 84.2473C37.2437 84.2473 39.3385 86.5943 39.9284 87.3126C40.3957 87.8789 41.3388 87.8789 41.8061 87.3126C42.3984 86.5943 44.4932 84.2473 46.6616 84.2473C47.0197 84.2473 47.357 84.3113 47.693 84.4407C49.1194 84.9932 50.1165 86.1648 50.5016 87.7396C51.1271 90.295 50.1165 93.4419 47.7997 96.1569C45.8104 98.485 43.1478 100.695 40.8678 101.93ZM65.3967 103.084C59.5675 103.084 53.8473 101.603 48.7392 98.8191C49.0507 98.4863 49.3548 98.151 49.6455 97.8094C52.4909 94.4754 53.7001 90.4834 52.8809 87.1293C52.2946 84.7333 50.7616 82.9438 48.5613 82.0899C47.9518 81.8564 47.3116 81.7358 46.6616 81.7358C44.2553 81.7358 42.1568 83.3633 40.8678 84.6592C39.5801 83.3633 37.4816 81.7358 35.0741 81.7358C34.429 81.7358 33.7962 81.8563 33.1903 82.0862C30.9692 77.2465 29.8298 72.069 29.8298 66.6668C29.8298 46.5873 45.7847 30.2499 65.3967 30.2499C70.1786 30.2499 74.7974 31.2168 79.1489 33.0992C79.1464 33.1118 79.1427 33.1218 79.1391 33.1319C78.3198 36.486 79.5291 40.4793 82.3756 43.8133C84.755 46.6023 87.9167 49.1528 90.6259 50.4726C90.7927 50.5529 90.9718 50.5931 91.1521 50.5931C91.3324 50.5931 91.5114 50.5529 91.6782 50.4713C92.9856 49.8334 94.3997 48.9054 95.7807 47.8041C99.162 53.4889 100.964 59.9723 100.964 66.6668C100.964 86.7463 85.0088 103.084 65.3967 103.084Z" fill="#003E7C"/>
<path d="M72.7553 54.1091C72.7553 54.8036 73.3047 55.3649 73.9817 55.3649C74.6587 55.3649 75.2082 54.8036 75.2082 54.1091V46.5746C75.2082 45.8802 74.6587 45.3188 73.9817 45.3188H66.6231C65.9461 45.3188 65.3966 45.8802 65.3966 46.5746C65.3966 47.269 65.9461 47.8304 66.6231 47.8304H71.0211L43.68 75.8249C43.2004 76.3159 43.2004 77.1095 43.68 77.6005C43.9191 77.8454 44.2331 77.9684 44.5471 77.9684C44.861 77.9684 45.175 77.8454 45.4142 77.6005L72.7553 49.606V54.1091Z" fill="#80A3BC"/>
<path d="M85.379 55.7329L58.0379 83.7274V79.2243C58.0379 78.5298 57.4884 77.9685 56.8114 77.9685C56.1344 77.9685 55.585 78.5298 55.585 79.2243V86.7588C55.585 87.4532 56.1344 88.0145 56.8114 88.0145H64.1701C64.8471 88.0145 65.3965 87.4532 65.3965 86.7588C65.3965 86.0643 64.8471 85.503 64.1701 85.503H59.772L87.1132 57.5085C87.5927 57.0175 87.5927 56.2239 87.1132 55.7329C86.6336 55.2419 85.8585 55.2419 85.379 55.7329Z" fill="#80A3BC"/>
</svg>
