<svg width="181" height="163" viewBox="0 0 181 163" fill="none" xmlns="http://www.w3.org/2000/svg">
<rect x="0.554688" y="0.165375" width="179.909" height="162.32" rx="11" fill="#F0F5FB"/>
<path d="M74.2688 71.2979L72.7793 74.7917L82.2115 79.0149C81.945 80.8955 82.3589 82.8113 83.3752 84.4013C84.3915 85.9914 85.9402 87.1462 87.7301 87.6488C89.5199 88.1515 91.4274 87.9673 93.0938 87.1307C94.7602 86.2942 96.0706 84.8627 96.7785 83.1061C97.4864 81.3495 97.543 79.3887 96.9377 77.5923C96.3324 75.7959 95.1068 74.2881 93.4916 73.3521C91.8764 72.4162 89.9828 72.1168 88.1672 72.5103C86.3515 72.9039 84.7388 73.9634 83.6325 75.4892L74.2688 71.2979ZM89.6653 76.1146C90.1858 76.1049 90.7029 76.2024 91.1859 76.401C91.6689 76.5996 92.1081 76.8957 92.4774 77.2713C92.8467 77.6469 93.1386 78.0944 93.3357 78.5877C93.5329 79.0809 93.6314 79.6098 93.6253 80.1427C93.6363 80.6727 93.5439 81.1995 93.3535 81.6924C93.163 82.1853 92.8784 82.6342 92.5162 83.013C92.1541 83.3918 91.7217 83.6928 91.2445 83.8983C90.7672 84.1037 90.2547 84.2097 89.737 84.2097C89.2193 84.2097 88.7068 84.1037 88.2296 83.8983C87.7524 83.6928 87.32 83.3918 86.9579 83.013C86.5957 82.6342 86.3111 82.1853 86.1206 81.6924C85.9302 81.1995 85.8378 80.6727 85.8488 80.1427C85.8368 79.0914 86.2313 78.0778 86.9463 77.3232C87.6613 76.5687 88.6387 76.1342 89.6653 76.1146Z" fill="#80A3BC"/>
<path d="M92.0404 31.2529C85.3617 30.9236 78.6897 32.0321 72.4553 34.5069C66.221 36.9818 60.5629 40.7679 55.8465 45.6208C51.13 50.4737 47.4601 56.2857 45.0736 62.6811C42.6872 69.0765 41.6373 75.9132 41.9918 82.7499L30.0435 113.879H46.8578V129.424C46.8571 130.426 47.0493 131.418 47.4232 132.344C47.7972 133.27 48.3456 134.111 49.0372 134.82C49.7288 135.529 50.55 136.091 51.4539 136.475C52.3578 136.858 53.3266 137.056 54.3051 137.056H65.292V154.876H113.098V129.15C123.041 122.971 130.323 113.16 133.475 101.697C134.221 98.9822 134.972 96.2689 135.727 93.5566C137.699 86.4638 138.08 79.0063 136.842 71.7415C135.605 64.4767 132.78 57.592 128.58 51.6015C124.379 45.611 118.911 40.6698 112.584 37.1463C106.257 33.6227 99.2345 31.608 92.0404 31.2529ZM91.8775 35.0462C98.5113 35.3759 104.987 37.236 110.82 40.4873C116.653 43.7386 121.694 48.2973 125.566 53.8228C129.437 59.3484 132.039 65.6981 133.178 72.3978C134.317 79.0974 133.963 85.9736 132.142 92.5135C131.388 95.228 130.638 97.9438 129.893 100.661C128.364 106.225 125.76 111.418 122.236 115.933C118.712 120.448 114.339 124.193 109.376 126.947V151.063H69.0173V133.243H54.3084C53.8187 133.244 53.3339 133.145 52.8815 132.953C52.4292 132.761 52.0183 132.479 51.6723 132.125C51.3263 131.77 51.052 131.349 50.8651 130.885C50.6782 130.422 50.5824 129.925 50.5831 129.424V110.066H35.5092L45.7594 83.3561C45.3149 76.9882 46.1946 70.5961 48.3404 64.6018C50.4862 58.6076 53.8492 53.1474 58.2076 48.5819C62.566 44.0164 67.8206 40.4495 73.6245 38.1162C79.4284 35.783 85.6496 34.7365 91.8775 35.0462Z" fill="#003E7C"/>
<path d="M120.247 82.0467H110.183V78.233H116.514C116.108 72.2726 113.816 66.6101 109.985 62.103L105.51 66.6854L102.88 63.9887L107.355 59.406C102.952 55.4844 97.4211 53.1389 91.5997 52.7247V59.2054H87.8746V52.7247C82.0532 53.1389 76.5222 55.4844 72.1195 59.406L76.596 63.9887L73.9648 66.6854L69.4895 62.103C65.659 66.6102 63.3675 72.2727 62.962 78.233H69.2912V82.0467H59.2284C58.9784 77.7866 59.582 73.5191 61.0023 69.5067C62.4225 65.4943 64.6292 61.8216 67.4868 58.7147C70.3444 55.6077 73.7924 53.1321 77.619 51.4399C81.4455 49.7477 85.5696 48.8748 89.7378 48.8748C93.906 48.8748 98.0301 49.7477 101.857 51.4399C105.683 53.1321 109.131 55.6077 111.989 58.7147C114.846 61.8216 117.053 65.4943 118.473 69.5067C119.894 73.5191 120.497 77.7866 120.247 82.0467Z" fill="#80A3BC"/>
<path d="M91.1078 8.04501H88.3657V26.1866H91.1078V8.04501Z" fill="#003E7C"/>
<path d="M55.7168 17.0009L53.3369 18.4066L62.2024 34.1174L64.5823 32.7117L55.7168 17.0009Z" fill="#003E7C"/>
<path d="M29.4418 42.8751L28.0708 45.31L43.412 54.3804L44.7917 51.9458L29.4418 42.8751Z" fill="#003E7C"/>
<path d="M19.3276 78.7344V81.5458H37.0402V78.7344H19.3276Z" fill="#003E7C"/>
<path d="M150.032 117.404L151.403 114.97L136.063 105.899L134.682 108.334L150.032 117.404Z" fill="#003E7C"/>
<path d="M160.147 81.5458V78.7344H142.435V81.5458H160.147Z" fill="#003E7C"/>
<path d="M151.403 45.31L150.032 42.8751L134.682 51.9458L136.063 54.3804L151.403 45.31Z" fill="#003E7C"/>
<path d="M126.137 18.4066L123.757 17.0009L114.893 32.7117L117.272 34.1174L126.137 18.4066Z" fill="#003E7C"/>
</svg>
