<svg width="117" height="105" viewBox="0 0 117 105" fill="none" xmlns="http://www.w3.org/2000/svg">
<rect x="0.539551" y="0.543335" width="116.367" height="103.811" rx="11" fill="#F0F5FB"/>
<path d="M97.1803 79.4278L60.402 17.3709C59.8488 16.4354 58.3271 16.4354 57.7739 17.3709L20.9955 79.4278C20.7105 79.9072 20.7044 80.5029 20.9756 80.9916C21.2484 81.4788 21.7587 81.7782 22.3104 81.7782H95.867C96.4187 81.7782 96.9274 81.4788 97.2002 80.9916C97.473 80.5045 97.4653 79.9072 97.1803 79.4278ZM25.0166 78.6754L59.0887 21.1859L93.1592 78.6754H25.0166Z" fill="#003E7C"/>
<path d="M57.5562 39.8899V55.4041C57.5562 56.262 58.2427 56.9555 59.0886 56.9555C59.9345 56.9555 60.621 56.262 60.621 55.4041V39.8899C60.621 39.0335 59.9345 38.3384 59.0886 38.3384C58.2427 38.3384 57.5562 39.0335 57.5562 39.8899Z" fill="#80A3BC"/>
<path d="M59.0886 63.1612C58.2427 63.1612 57.5562 63.8547 57.5562 64.7126V67.8155C57.5562 68.6734 58.2427 69.3669 59.0886 69.3669C59.9345 69.3669 60.621 68.6734 60.621 67.8155V64.7126C60.621 63.8547 59.9345 63.1612 59.0886 63.1612Z" fill="#80A3BC"/>
</svg>
