<svg width="116" height="105" viewBox="0 0 116 105" fill="none" xmlns="http://www.w3.org/2000/svg">
<rect x="0.849609" y="0.661377" width="115.06" height="103.811" rx="11" fill="#F0F5FB"/>
<path d="M95.5029 70.3364L79.9593 54.3339V38.4188C79.9593 35.6206 77.7388 33.4345 75.0912 33.4345C72.4437 33.4345 70.2232 35.708 70.2232 38.4188V44.3651L55.619 29.412C53.7401 27.4882 50.5802 27.4882 48.7013 29.412C46.8224 31.3358 46.8224 34.5712 48.7013 36.495L58.352 46.3764C57.5833 46.6387 56.9001 47.0759 56.3022 47.6006C55.3628 48.5625 54.8504 49.7867 54.8504 51.0984C54.8504 51.5356 54.9358 51.8854 55.0212 52.3227C53.9109 52.4101 52.8861 52.9348 52.1174 53.7218C51.178 54.6837 50.6656 55.9079 50.6656 57.2196C50.6656 57.6568 50.751 58.0066 50.8364 58.4438C49.8115 58.5313 48.7867 59.056 47.9326 59.843C46.0537 61.7668 46.0537 65.0022 47.9326 66.926L53.3131 72.4351C57.0709 76.2827 62.4514 77.8567 67.5756 76.6325L78.422 87.738C78.6782 88.0004 79.0198 88.0878 79.3615 88.0878C79.7031 88.0878 80.0447 88.0004 80.3009 87.738L95.5883 72.0853C96.0153 71.6481 96.0153 70.7736 95.5029 70.3364ZM79.3615 85.0272L68.9421 74.3589C68.6859 74.0966 68.3443 74.0091 68.0027 74.0091C67.9173 74.0091 67.7464 74.0091 67.661 74.0966C63.22 75.4082 58.352 74.0966 55.1066 70.7736L49.7261 65.2646C48.7867 64.3027 48.7867 62.8161 49.7261 61.9417C50.5802 61.0672 52.1174 61.0672 52.9715 61.9417C53.4839 62.4663 54.2525 62.4663 54.765 61.9417C55.0212 61.6793 55.1066 61.3295 55.1066 60.9798C55.1066 60.63 55.0212 60.2802 54.765 60.0179L53.8255 59.056C53.4839 58.5313 53.2277 57.9192 53.2277 57.307C53.2277 56.6949 53.4839 56.0828 53.9109 55.6456C54.765 54.7711 56.3022 54.7711 57.1563 55.6456C57.6687 56.1703 58.4374 56.1703 58.9498 55.6456C59.4622 55.1209 59.4622 54.3339 58.9498 53.8092L58.0103 52.8473C57.5833 52.4101 57.3271 51.798 57.3271 51.1859C57.3271 50.5737 57.5833 49.9616 58.0103 49.5244C58.8644 48.65 60.4017 48.65 61.2557 49.5244C61.7681 50.0491 62.5368 50.0491 63.0492 49.5244C63.5616 48.9997 63.5616 48.2127 63.0492 47.688L50.4947 34.6587C49.5553 33.6968 49.5553 32.2102 50.4947 31.3358C51.4342 30.3739 52.8861 30.3739 53.7401 31.3358L70.5648 48.5625C70.9064 48.9123 71.5042 49.0872 71.9313 48.8248C72.4437 48.65 72.6999 48.1253 72.6999 47.6006V38.4188C72.6999 37.1072 73.7248 36.0578 75.0058 36.0578C76.2869 36.0578 77.3117 37.1072 77.3117 38.4188V54.946C77.3117 55.2958 77.4826 55.6456 77.6534 55.9079L92.6846 71.2983L79.3615 85.0272Z" fill="#003E7C"/>
<path d="M32.8165 11.748C26.2403 11.748 20.8599 17.257 20.8599 23.9903C20.8599 30.7236 26.2403 36.2327 32.8165 36.2327C39.3926 36.2327 44.7731 30.7236 44.7731 23.9903C44.7731 17.257 39.3926 11.748 32.8165 11.748ZM32.8165 33.6968C27.6068 33.6968 23.422 29.3245 23.422 24.0778C23.422 18.8311 27.6922 14.4588 32.8165 14.4588C38.0262 14.4588 42.211 18.8311 42.211 24.0778C42.211 29.3245 37.9408 33.6968 32.8165 33.6968Z" fill="#003E7C"/>
<path d="M34.7802 27.1384C33.6699 28.2752 31.8765 28.2752 30.7662 27.1384C30.2538 26.6137 29.4851 26.6137 28.9727 27.1384C28.4603 27.663 28.4603 28.4501 28.9727 28.9747C29.9976 30.0241 31.364 30.5487 32.7305 30.5487C34.097 30.5487 35.4634 30.0241 36.4883 28.9747C37.0007 28.4501 37.0007 27.663 36.4883 27.1384C36.0613 26.6137 35.2926 26.6137 34.7802 27.1384Z" fill="#80A3BC"/>
<path d="M35.8055 20.58C35.1222 20.58 34.5244 21.1921 34.5244 21.8916C34.5244 22.5912 35.1222 23.2033 35.8055 23.2033C36.4887 23.2033 37.0865 22.5912 37.0865 21.8916C37.0865 21.1921 36.4887 20.58 35.8055 20.58Z" fill="#80A3BC"/>
<path d="M29.827 23.2033C30.5102 23.2033 31.108 22.5912 31.108 21.8916C31.108 21.1921 30.5102 20.58 29.827 20.58C29.1437 20.58 28.5459 21.1921 28.5459 21.8916C28.5459 22.5912 29.0583 23.2033 29.827 23.2033Z" fill="#80A3BC"/>
<path d="M32.8165 39.9929C26.2403 39.9929 20.8599 45.5019 20.8599 52.2352C20.8599 58.9685 26.2403 64.4776 32.8165 64.4776C39.3926 64.4776 44.7731 58.9685 44.7731 52.2352C44.7731 45.5019 39.3926 39.9929 32.8165 39.9929ZM32.8165 61.9417C27.6068 61.9417 23.422 57.5694 23.422 52.3227C23.422 46.9885 27.6922 42.7037 32.8165 42.7037C38.0262 42.7037 42.211 47.0759 42.211 52.3227C42.211 57.5694 37.9408 61.9417 32.8165 61.9417Z" fill="#003E7C"/>
<path d="M35.6345 54.946H29.827C29.1437 54.946 28.5459 55.5582 28.5459 56.2577C28.5459 56.9573 29.1437 57.5694 29.827 57.5694H35.6345C36.3177 57.5694 36.9155 56.9573 36.9155 56.2577C36.9155 55.5582 36.4031 54.946 35.6345 54.946Z" fill="#80A3BC"/>
<path d="M35.8055 48.7374C35.1222 48.7374 34.5244 49.3495 34.5244 50.0491C34.5244 50.7487 35.1222 51.3608 35.8055 51.3608C36.4887 51.3608 37.0865 50.7487 37.0865 50.0491C37.0865 49.3495 36.4887 48.7374 35.8055 48.7374Z" fill="#80A3BC"/>
<path d="M29.827 51.3608C30.5102 51.3608 31.108 50.7487 31.108 50.0491C31.108 49.3495 30.5102 48.7374 29.827 48.7374C29.1437 48.7374 28.5459 49.3495 28.5459 50.0491C28.5459 50.7487 29.0583 51.3608 29.827 51.3608Z" fill="#80A3BC"/>
<path d="M32.8165 68.5001C26.2403 68.5001 20.8599 74.0092 20.8599 80.7425C20.8599 87.4758 26.2403 92.9848 32.8165 92.9848C39.3926 92.9848 44.7731 87.4758 44.7731 80.7425C44.7731 74.0092 39.3926 68.5001 32.8165 68.5001ZM32.8165 90.4489C27.6068 90.4489 23.422 86.0766 23.422 80.8299C23.422 75.5832 27.6922 71.2109 32.8165 71.2109C38.0262 71.2109 42.211 75.5832 42.211 80.8299C42.211 86.0766 37.9408 90.4489 32.8165 90.4489Z" fill="#003E7C"/>
<path d="M28.9727 83.8905C28.4603 84.4151 28.4603 85.2021 28.9727 85.7268C29.4851 86.2515 30.2538 86.2515 30.7662 85.7268C31.8765 84.59 33.6699 84.59 34.7802 85.7268C35.0364 85.9891 35.378 86.0766 35.7197 86.0766C36.0613 86.0766 36.4029 85.9891 36.6591 85.7268C37.1715 85.2021 37.1715 84.4151 36.6591 83.8905C34.524 81.7043 31.1078 81.7043 28.9727 83.8905Z" fill="#80A3BC"/>
<path d="M35.8055 77.3321C35.1222 77.3321 34.5244 77.9442 34.5244 78.6438C34.5244 79.3433 35.1222 79.9555 35.8055 79.9555C36.4887 79.9555 37.0865 79.3433 37.0865 78.6438C37.0865 77.9442 36.4887 77.3321 35.8055 77.3321Z" fill="#80A3BC"/>
<path d="M29.827 79.9555C30.5102 79.9555 31.108 79.3433 31.108 78.6438C31.108 77.9442 30.5102 77.3321 29.827 77.3321C29.1437 77.3321 28.5459 77.9442 28.5459 78.6438C28.5459 79.3433 29.0583 79.9555 29.827 79.9555Z" fill="#80A3BC"/>
</svg>
