<svg width="131" height="134" viewBox="0 0 131 134" fill="none" xmlns="http://www.w3.org/2000/svg">
<ellipse cx="65.8283" cy="66.6667" rx="65.0339" ry="66.588" fill="#F0F5FB"/>
<path d="M87.9786 38.9119C80.9715 36.9479 73.8823 35.9459 66.9105 35.9338C66.9092 35.9338 66.9079 35.9338 66.9053 35.9338C59.9335 35.9472 52.8442 36.9492 45.8372 38.9119C36.3157 41.5719 31.9784 46.2493 32.9427 52.8119H32.9492C33.0692 53.703 33.8521 59.0111 38.9463 93.5622C39.403 96.7232 42.1001 99.1067 45.22 99.1067H88.5918C91.713 99.1067 94.4102 96.7232 94.8669 93.5662C99.961 59.0098 100.745 53.703 100.865 52.8106L100.873 52.8119C101.836 46.248 97.4987 41.5719 87.9786 38.9119ZM98.2908 52.4151C98.2908 52.4205 98.2895 52.4258 98.2895 52.4325C98.1981 53.0764 92.3446 92.7646 92.2846 93.1707C92.0158 95.0318 90.4278 96.4347 88.5918 96.4347H45.2213C43.3854 96.4347 41.7974 95.0305 41.5286 93.1667C41.4699 92.7646 35.6202 53.0911 35.5263 52.4325C35.5263 52.4271 35.525 52.4205 35.5237 52.4151C34.7668 47.2687 38.2625 43.7977 46.5248 41.4891C53.3087 39.5879 60.167 38.6179 66.9079 38.6046C73.6487 38.6179 80.507 39.5879 87.2909 41.4891C95.5519 43.7977 99.0476 47.2701 98.2908 52.4151Z" fill="#003E7C"/>
<path d="M66.9072 50.9148C57.6375 50.9148 48.9185 54.0692 42.3564 59.7967C42.0655 60.0492 41.8984 60.422 41.8984 60.8134C41.8984 61.2049 42.0655 61.5763 42.3577 61.8315L55.5289 73.316C56.0156 73.7395 56.7307 73.7409 57.2187 73.3174C58.9006 71.8584 61.0014 70.8123 63.2706 70.2672L62.3063 73.4683C61.8574 74.9567 62.0857 76.6267 62.9169 77.9333C63.6972 79.1598 64.9355 79.9574 66.3135 80.1218C66.5157 80.1472 66.7167 80.1565 66.9163 80.1565C66.9437 80.1565 66.9724 80.1565 66.9998 80.1565C68.4834 80.1284 69.8496 79.387 70.7447 78.1217C71.6973 76.775 71.9804 75.0288 71.5041 73.4456L70.5464 70.2685C72.8168 70.8123 74.9176 71.8598 76.5996 73.3187C77.0641 73.7222 77.8013 73.7409 78.2894 73.3174L91.4592 61.8328C91.7502 61.579 91.9185 61.2062 91.9185 60.8148C91.9185 60.4233 91.7515 60.0519 91.4592 59.7981C84.8945 54.0705 76.1755 50.9148 66.9072 50.9148ZM68.6296 76.5546C68.3882 76.8953 67.8493 77.4684 66.9541 77.4844C66.8458 77.4871 66.731 77.4804 66.6149 77.4671C65.999 77.3936 65.4614 77.0409 65.1013 76.4744C64.6876 75.8251 64.5741 74.9968 64.7972 74.2566L66.3852 68.99C66.3865 68.9859 66.9072 67.2598 66.9072 67.2598C66.9072 67.2598 67.4278 68.9873 67.4291 68.99L69.0093 74.2339C69.2455 75.0155 69.1019 75.8839 68.6296 76.5546ZM77.4073 70.5718C75.1982 68.9191 72.5102 67.8129 69.6734 67.3787L68.1533 62.3352C67.985 61.7754 67.4787 61.3933 66.9072 61.3933C66.3343 61.3933 65.8294 61.7754 65.6597 62.3352L64.1396 67.38C61.3028 67.8143 58.6149 68.9191 56.4057 70.5732L45.2428 60.8402C46.4119 59.917 47.6646 59.102 48.9564 58.3458L53.0236 62.6639C53.2793 62.9351 53.6212 63.0727 53.9631 63.0727C54.2893 63.0727 54.6155 62.9484 54.8686 62.6986C55.3867 62.1856 55.4023 61.3398 54.9013 60.8094L51.3742 57.0645C53.2115 56.1854 55.1361 55.464 57.1352 54.9149L59.0285 58.7573C59.2581 59.2236 59.7175 59.4921 60.195 59.4921C60.3921 59.4921 60.593 59.4467 60.7809 59.3492C61.4242 59.0178 61.6826 58.2135 61.3589 57.5549L59.7566 54.303C61.6604 53.9302 63.6124 53.7084 65.601 53.6403V57.3237C65.601 58.0626 66.1856 58.6598 66.9059 58.6598C67.6261 58.6598 68.2107 58.0626 68.2107 57.3237V53.639C70.1993 53.7071 72.1514 53.9289 74.0551 54.3016L72.4541 57.5535C72.1292 58.2122 72.3875 59.0165 73.0308 59.3478C73.22 59.4454 73.4197 59.4908 73.6167 59.4908C74.0943 59.4908 74.5536 59.2222 74.7832 58.756L76.6753 54.9135C78.6743 55.4626 80.5989 56.1828 82.4362 57.0632L78.9092 60.8081C78.4081 61.3385 78.4238 62.1842 78.9418 62.6973C79.1949 62.9484 79.5211 63.0713 79.8473 63.0713C80.1892 63.0713 80.5298 62.9337 80.7868 62.6625L84.8541 58.3445C86.1459 59.0993 87.3972 59.9156 88.5676 60.8388L77.4073 70.5718Z" fill="#003E7C"/>
<path d="M47.1373 85.9656C44.876 85.9656 43.0361 87.8494 43.0361 90.1647C43.0361 92.4801 44.876 94.3652 47.1373 94.3652C49.3986 94.3652 51.2397 92.4814 51.2397 90.1647C51.2384 87.8494 49.3986 85.9656 47.1373 85.9656ZM47.1373 91.6918C46.3152 91.6918 45.6458 91.0064 45.6458 90.1634C45.6458 89.3217 46.3152 88.6363 47.1373 88.6363C47.9593 88.6363 48.63 89.3217 48.63 90.1634C48.6287 91.0064 47.9593 91.6918 47.1373 91.6918Z" fill="#80A3BC"/>
<path d="M86.6778 85.9656C84.4178 85.9656 82.5767 87.8494 82.5767 90.1647C82.5767 92.4801 84.4165 94.3652 86.6778 94.3652C88.9391 94.3652 90.7802 92.4814 90.7802 90.1647C90.7802 87.8494 88.9391 85.9656 86.6778 85.9656ZM86.6778 91.6918C85.8557 91.6918 85.1864 91.0064 85.1864 90.1634C85.1864 89.3217 85.8557 88.6363 86.6778 88.6363C87.5012 88.6363 88.1705 89.3217 88.1705 90.1634C88.1705 91.0064 87.5012 91.6918 86.6778 91.6918Z" fill="#80A3BC"/>
<path d="M46.1603 50.0732C46.1603 47.7592 44.3204 45.874 42.0591 45.874C39.7978 45.874 37.958 47.7578 37.958 50.0732C37.958 52.3885 39.7978 54.2736 42.0591 54.2736C44.3204 54.2736 46.1603 52.3898 46.1603 50.0732ZM40.5677 50.0732C40.5677 49.2315 41.2371 48.5461 42.0591 48.5461C42.8812 48.5461 43.5506 49.2315 43.5506 50.0732C43.5506 50.9162 42.8812 51.6016 42.0591 51.6016C41.2371 51.6016 40.5677 50.9162 40.5677 50.0732Z" fill="#80A3BC"/>
<path d="M91.755 45.8754C89.495 45.8754 87.6538 47.7592 87.6538 50.0745C87.6538 52.3899 89.4936 54.275 91.755 54.275C94.0163 54.275 95.8574 52.3912 95.8574 50.0745C95.8561 47.7592 94.0163 45.8754 91.755 45.8754ZM91.755 51.6016C90.9329 51.6016 90.2635 50.9162 90.2635 50.0732C90.2635 49.2315 90.9329 48.5461 91.755 48.5461C92.5783 48.5461 93.2477 49.2315 93.2477 50.0732C93.2464 50.9162 92.577 51.6016 91.755 51.6016Z" fill="#80A3BC"/>
</svg>
